<?xml version="1.0" encoding="UTF-8"?>
<svg xmlns="http://www.w3.org/2000/svg" xmlns:xlink="http://www.w3.org/1999/xlink" width="13px" height="15px" viewBox="0 0 13 14" version="1.1">
<g id="surface1">
<path style=" stroke:none;fill-rule:nonzero;fill:rgb(0%,0%,0%);fill-opacity:1;" d="M 0.929688 7.875 C 0.414062 7.875 0 8.265625 0 8.75 C 0 9.234375 0.414062 9.625 0.929688 9.625 L 12.070312 9.625 C 12.585938 9.625 13 9.234375 13 8.75 C 13 8.265625 12.585938 7.875 12.070312 7.875 Z M 0.929688 4.375 C 0.414062 4.375 0 4.765625 0 5.25 C 0 5.734375 0.414062 6.125 0.929688 6.125 L 12.070312 6.125 C 12.585938 6.125 13 5.734375 13 5.25 C 13 4.765625 12.585938 4.375 12.070312 4.375 Z M 0.929688 4.375 "/>
</g>
</svg>
