<?xml version="1.0" encoding="UTF-8"?>
<svg xmlns="http://www.w3.org/2000/svg" xmlns:xlink="http://www.w3.org/1999/xlink" width="13px" height="15px" viewBox="0 0 13 14" version="1.1">
<g id="surface1">
<path style=" stroke:none;fill-rule:nonzero;fill:rgb(0%,0%,0%);fill-opacity:1;" d="M 11.144531 0.875 C 12.167969 0.875 13 1.660156 13 2.625 L 13 11.375 C 13 12.339844 12.167969 13.125 11.144531 13.125 L 1.855469 13.125 C 0.832031 13.125 0 12.339844 0 11.375 L 0 2.625 C 0 1.660156 0.832031 0.875 1.855469 0.875 Z M 11.144531 2.1875 L 1.855469 2.1875 C 1.601562 2.1875 1.394531 2.382812 1.394531 2.625 L 1.394531 11.375 C 1.394531 11.617188 1.601562 11.8125 1.855469 11.8125 L 11.144531 11.8125 C 11.398438 11.8125 11.605469 11.617188 11.605469 11.375 L 11.605469 2.625 C 11.605469 2.382812 11.398438 2.1875 11.144531 2.1875 Z M 11.144531 2.1875 "/>
</g>
</svg>
