<?xml version="1.0" encoding="UTF-8"?>
<svg xmlns="http://www.w3.org/2000/svg" xmlns:xlink="http://www.w3.org/1999/xlink" width="17px" height="20px" viewBox="0 0 17 19" version="1.1">
<g id="surface1">
<path style=" stroke:none;fill-rule:nonzero;fill:rgb(0%,0%,0%);fill-opacity:1;" d="M 6.070312 4.15625 C 6.070312 2.847656 7.160156 1.78125 8.5 1.78125 C 9.839844 1.78125 10.929688 2.847656 10.929688 4.15625 L 10.929688 5.9375 L 6.070312 5.9375 Z M 4.25 5.9375 L 1.820312 5.9375 C 0.816406 5.9375 0 6.734375 0 7.71875 L 0 15.4375 C 0 17.40625 1.632812 19 3.644531 19 L 13.355469 19 C 15.367188 19 17 17.40625 17 15.4375 L 17 7.71875 C 17 6.734375 16.183594 5.9375 15.179688 5.9375 L 12.75 5.9375 L 12.75 4.15625 C 12.75 1.859375 10.847656 0 8.5 0 C 6.152344 0 4.25 1.859375 4.25 4.15625 Z M 5.160156 9.5 C 4.65625 9.5 4.25 9.101562 4.25 8.609375 C 4.25 8.117188 4.65625 7.71875 5.160156 7.71875 C 5.664062 7.71875 6.070312 8.117188 6.070312 8.609375 C 6.070312 9.101562 5.664062 9.5 5.160156 9.5 Z M 12.75 8.609375 C 12.75 9.101562 12.34375 9.5 11.839844 9.5 C 11.335938 9.5 10.929688 9.101562 10.929688 8.609375 C 10.929688 8.117188 11.335938 7.71875 11.839844 7.71875 C 12.34375 7.71875 12.75 8.117188 12.75 8.609375 Z M 12.75 8.609375 "/>
</g>
</svg>
