<?xml version="1.0" encoding="UTF-8"?>
<svg xmlns="http://www.w3.org/2000/svg" xmlns:xlink="http://www.w3.org/1999/xlink" width="10px" height="10px" viewBox="0 0 10 10" version="1.1">
<g id="surface1">
<path style=" stroke:none;fill-rule:nonzero;fill:rgb(0%,0%,0%);fill-opacity:1;" d="M 9.191406 5.441406 C 9.4375 5.195312 9.4375 4.800781 9.191406 4.554688 L 6.066406 1.433594 C 5.820312 1.1875 5.425781 1.1875 5.179688 1.433594 C 4.9375 1.675781 4.9375 2.070312 5.179688 2.316406 L 7.867188 5 L 5.183594 7.683594 C 4.9375 7.929688 4.9375 8.324219 5.183594 8.570312 C 5.429688 8.8125 5.824219 8.8125 6.070312 8.570312 L 9.195312 5.445312 Z M 2.316406 8.566406 L 5.441406 5.441406 C 5.6875 5.195312 5.6875 4.800781 5.441406 4.554688 L 2.316406 1.433594 C 2.074219 1.1875 1.675781 1.1875 1.433594 1.433594 C 1.1875 1.675781 1.1875 2.070312 1.433594 2.316406 L 4.117188 5 L 1.433594 7.683594 C 1.1875 7.929688 1.1875 8.324219 1.433594 8.570312 C 1.679688 8.8125 2.074219 8.8125 2.320312 8.570312 Z M 2.316406 8.566406 "/>
</g>
</svg>
