<svg xmlns="http://www.w3.org/2000/svg" xmlns:xlink="http://www.w3.org/1999/xlink" width="16px" height="16px" viewBox="0 0 16 16" version="1.1">
<g>
<path style=" stroke:none;fill-rule:nonzero;fill:rgb(0%,0%,0%);fill-opacity:1;" d="M 8 1 C 3.582031 1 0 3.910156 0 7.5 C 0 8.988281 0.621094 10.351562 1.652344 11.445312 C 1.1875 12.679688 0.222656 13.722656 0.207031 13.734375 C 0 13.953125 -0.0546875 14.273438 0.0625 14.546875 C 0.183594 14.820312 0.449219 15 0.75 15 C 2.671875 15 4.160156 14.195312 5.097656 13.554688 C 5.972656 13.835938 6.976562 14 8 14 C 12.417969 14 15.972656 11.089844 15.972656 7.5 C 15.972656 3.910156 12.417969 1 8 1 Z M 8.003906 12.5 C 7.167969 12.5 6.34375 12.371094 5.554688 12.121094 L 4.84375 11.898438 L 4.234375 12.328125 C 3.789062 12.644531 3.175781 12.996094 2.4375 13.234375 C 2.667969 12.855469 2.886719 12.429688 3.058594 11.976562 L 3.390625 11.101562 L 2.746094 10.417969 C 2.183594 9.816406 1.503906 8.820312 1.503906 7.5 C 1.503906 4.742188 4.417969 2.5 8.003906 2.5 C 11.589844 2.5 14.503906 4.742188 14.503906 7.5 C 14.503906 10.257812 11.585938 12.5 8.003906 12.5 Z M 8.003906 12.5 "/>
</g>
</svg>
