<?xml version="1.0" encoding="UTF-8"?>
<svg xmlns="http://www.w3.org/2000/svg" xmlns:xlink="http://www.w3.org/1999/xlink" width="18px" height="16px" viewBox="0 0 18 16" version="1.1">
<g id="surface1">
<path style=" stroke:none;fill-rule:nonzero;fill:rgb(0%,0%,0%);fill-opacity:1;" d="M 17.992188 7.984375 C 17.992188 8.546875 17.523438 8.988281 16.992188 8.988281 L 15.992188 8.988281 L 16.015625 13.992188 C 16.015625 14.078125 16.007812 14.164062 16 14.246094 L 16 14.75 C 16 15.441406 15.441406 16 14.75 16 L 14.25 16 C 14.214844 16 14.179688 16 14.148438 15.996094 C 14.101562 16 14.058594 16 14.015625 16 L 12.25 16 C 11.558594 16 11 15.441406 11 14.75 L 11 12 C 11 11.445312 10.554688 11 10 11 L 8 11 C 7.445312 11 7 11.445312 7 12 L 7 14.75 C 7 15.441406 6.441406 16 5.75 16 L 4.003906 16 C 3.957031 16 3.910156 15.996094 3.863281 15.992188 C 3.824219 15.996094 3.789062 16 3.75 16 L 3.25 16 C 2.558594 16 2 15.441406 2 14.75 L 2 11.25 C 2 11.222656 2 11.191406 2.003906 11.164062 L 2.003906 8.988281 L 1 8.988281 C 0.4375 8.988281 0 8.550781 0 7.984375 C 0 7.703125 0.09375 7.453125 0.3125 7.234375 L 8.324219 0.25 C 8.542969 0.03125 8.792969 0 9.011719 0 C 9.230469 0 9.480469 0.0625 9.667969 0.21875 L 17.648438 7.234375 C 17.898438 7.453125 18.023438 7.703125 17.992188 7.984375 Z M 17.992188 7.984375 "/>
</g>
</svg>
