<?xml version="1.0" encoding="UTF-8"?>
<svg xmlns="http://www.w3.org/2000/svg" xmlns:xlink="http://www.w3.org/1999/xlink" width="15px" height="15px" viewBox="0 0 15 15" version="1.1">
<g id="surface1">
<path style=" stroke:none;fill-rule:nonzero;fill:rgb(0%,0%,0%);fill-opacity:1;" d="M 12.1875 6.09375 C 12.1875 7.4375 11.75 8.679688 11.015625 9.6875 L 14.726562 13.398438 C 15.089844 13.765625 15.089844 14.359375 14.726562 14.726562 C 14.359375 15.09375 13.765625 15.09375 13.398438 14.726562 L 9.6875 11.015625 C 8.679688 11.753906 7.4375 12.1875 6.09375 12.1875 C 2.726562 12.1875 0 9.460938 0 6.09375 C 0 2.726562 2.726562 0 6.09375 0 C 9.460938 0 12.1875 2.726562 12.1875 6.09375 Z M 6.09375 10.3125 C 8.421875 10.3125 10.3125 8.421875 10.3125 6.09375 C 10.3125 3.765625 8.421875 1.875 6.09375 1.875 C 3.765625 1.875 1.875 3.765625 1.875 6.09375 C 1.875 8.421875 3.765625 10.3125 6.09375 10.3125 Z M 6.09375 10.3125 "/>
</g>
</svg>
